<svg xmlns="http://www.w3.org/2000/svg" width="550.129" height="465.473" viewBox="0 0 550.129 465.473"><g transform="translate(0 0.002)"><ellipse cx="23.353" cy="3.582" rx="23.353" ry="3.582" transform="translate(27.979 393.409)" fill="#36ca8e" opacity="0.1"/><ellipse cx="23.353" cy="3.582" rx="23.353" ry="3.582" transform="translate(364.805 398.282)" fill="#36ca8e" opacity="0.1"/><ellipse cx="23.353" cy="3.582" rx="23.353" ry="3.582" transform="translate(307.274 431.467)" fill="#36ca8e" opacity="0.1"/><ellipse cx="23.353" cy="3.582" rx="23.353" ry="3.582" transform="translate(103.651 366.682)" fill="#36ca8e" opacity="0.1"/><ellipse cx="133.953" cy="28.875" rx="133.953" ry="28.875" transform="translate(0 407.719)" fill="#36ca8e" opacity="0.55"/><path d="M653.086,358.311c-3.616,8.715-8.36,17.069-15,23.477-8.089,7.807-18.135,12.066-28.892,14.1a87.008,87.008,0,0,1-9.589,1.241,139.377,139.377,0,0,1-25.553-.688,302.117,302.117,0,0,1-60.188-12.878q-4.823-1.557-9.589-3.277-7.192-2.578-14.254-5.534c-19.179-8.016-39.006-18.237-59.409-15.067-9.888,1.54-19.179,6.2-29.09,7.593A52.014,52.014,0,0,1,380.74,365.8a71.412,71.412,0,0,1-9.589-3.311,109.113,109.113,0,0,1-19.923-11.282c-14.948-10.447-28.362-23.4-44.1-32.446C289.776,308.784,270.569,304.04,251,300.5q-4.778-.863-9.589-1.647c-9.054-1.495-18.13-2.877-27.076-4.513-8.619-1.591-17.391-3.537-24.893-8.32-5.353-3.413-9.855-8.14-13.984-13.121a156.526,156.526,0,0,1-19.472-30.021q-.423-.846-.829-1.692c-8.286-17-13.86-35.537-17.278-54.716-.1-.564-.2-1.128-.293-1.692a308.99,308.99,0,0,1-4.033-57.537l.034-1.692c.22-9.527.812-19.015,1.692-28.368.632-6.577,1.478-13.4,4.885-18.931s8.958-9.076,14.486-12.032c24.447-13.013,47.863-16.635,74.138-10.328,4.219,1.01,8.422,2.1,12.624,3.227,3.2.857,6.4,1.743,9.589,2.634,22.073,6.154,44.089,12.7,66.906,14.666q3.306.288,6.617.44,6.549.3,13.1.135a226.3,226.3,0,0,0,33.529-3.452q4.806-.829,9.589-1.839c13.764-2.871,27.4-6.7,40.823-10.938q4.112-1.3,8.213-2.64c6.16-2.014,12.32-4.067,18.491-6.064C466.69,46.09,485.2,40.636,504.275,38.436q2.448-.276,4.9-.491c1.563-.135,3.131-.243,4.693-.322a159.612,159.612,0,0,1,85.741,20.16q4.885,2.713,9.589,5.776,6.526,4.248,12.652,9.138c8.371,6.684,16.206,14.294,22.174,23.438a84.826,84.826,0,0,1,11.761,29.423c.118.564.231,1.128.333,1.692,3.187,16.973,2.194,35.176-1.382,52.183-.378,1.783-.778,3.571-1.2,5.353-.13.564-.265,1.128-.4,1.692-3.858,16.082-8.788,32.119-7.5,48.562.164,2.07.423,4.123.761,6.154.1.564.192,1.128.3,1.692,2.516,13.414,8.236,26.14,11.665,39.424a121.459,121.459,0,0,1-5.274,76Z" transform="translate(-121.577 -37.41)" fill="#36ca8e" opacity="0.1"/><path d="M609.233,127.417h46.926c-.1-.564-.214-1.128-.333-1.692H609.233v-62q-4.7-3.057-9.589-5.776v67.775H513.9V37.79c-1.562.079-3.131.186-4.693.322s-3.266.3-4.9.491v87.123H381.907l-.293-.322,66.692-73.179c-6.171,2-12.331,4.05-18.491,6.064L380.779,112.1V71.866q-4.789,1-9.589,1.839v40.247l-33.529-36.8q-6.549.158-13.1-.135L368.651,125.4l-.293.322H251.028v-63.8c-3.193-.891-6.391-1.777-9.589-2.634v66.438H133.614l-.034,1.692H241.45v57.537H137.613c.1.564.192,1.128.293,1.692H241.45v54.716H155.184q.406.846.829,1.692H241.45v55.991q4.806.79,9.589,1.647V243.055h120.15V362.641a71.408,71.408,0,0,0,9.589,3.311v-122.9H504.313V380.449q4.772,1.726,9.589,3.277V243.055h85.741V397.292a87.009,87.009,0,0,0,9.589-1.241v-153h37.5c-.107-.564-.2-1.128-.3-1.692H609.2V186.646h43.942c.135-.564.271-1.128.4-1.692H609.233Zm-9.589,0v57.537H513.9V127.417Zm-95.33,57.537H380.779V127.417H504.313ZM251.039,127.417H369.5l1.692,1.54v56H251.039Zm0,113.945V186.646h120.15v54.716Zm129.739,0V186.646H504.313v54.716Zm218.865,0H513.9V186.646h85.741Z" transform="translate(-121.616 -37.577)" fill="#36ca8e" opacity="0.1"/><path d="M861.573,123.663h-.745a1.822,1.822,0,0,0,.908-1.478h0c0-1.162-1.427-2.115-3.17-2.115H836.342c-1.743,0-3.176.953-3.176,2.115h0c0,1.168,1.433,2.121,3.176,2.121h.745a1.828,1.828,0,0,0-.908,1.478c0,.993,1.038,1.833,2.426,2.059H832.2c-1.749,0-3.176.953-3.176,2.115s1.427,2.121,3.176,2.121h22.231c1.749,0,3.176-.953,3.176-2.121,0-.993-1.038-1.828-2.431-2.053h6.4c1.743,0,3.17-.953,3.17-2.121S863.316,123.663,861.573,123.663Z" transform="translate(-424.769 -73.444)" fill="#36ca8e" opacity="0.1"/><path d="M434.413,159.429h-.745a1.85,1.85,0,0,0,.908-1.478h0c0-1.168-1.427-2.121-3.176-2.121H409.171c-1.749,0-3.176.953-3.176,2.121h0c0,1.162,1.427,2.115,3.176,2.115h.739a1.845,1.845,0,0,0-.9,1.478c0,1,1.038,1.833,2.426,2.059h-6.4c-1.749,0-3.176.953-3.176,2.121s1.427,2.115,3.176,2.115h22.231c1.749,0,3.176-.953,3.176-2.115,0-1-1.044-1.833-2.431-2.059h6.4c1.743,0,3.17-.953,3.17-2.121S436.156,159.429,434.413,159.429Z" transform="translate(-238.563 -89.032)" fill="#36ca8e" opacity="0.1"/><path d="M922.033,312.493h-.745a1.851,1.851,0,0,0,.908-1.478h0c0-1.162-1.427-2.115-3.176-2.115H896.791c-1.749,0-3.176.953-3.176,2.115h0c0,1.162,1.427,2.115,3.176,2.115h.739a1.839,1.839,0,0,0-.9,1.478c0,.993,1.038,1.833,2.426,2.059h-6.4c-1.743,0-3.17.953-3.17,2.115s1.427,2.121,3.17,2.121h22.236c1.743,0,3.176-.953,3.176-2.121,0-.993-1.044-1.828-2.431-2.053h6.4c1.743,0,3.17-.953,3.17-2.121S923.776,312.493,922.033,312.493Z" transform="translate(-451.124 -155.758)" fill="#36ca8e" opacity="0.1"/><path d="M226.84,601.47l259.913,29.208v8.286l-260.573-30.2Z" transform="translate(-98.595 -262.191)" fill="#eaecf0"/><path d="M222.84,561.421h-4.93V438.97l3.548,1.077.039,3.672Z" transform="translate(-94.99 -191.355)" fill="#eaecf0"/><path d="M227.754,560.28l-2.172,1.974-1.343-117.7-.039-3.672h2.567l.034,3.892Z" transform="translate(-97.732 -192.187)" fill="#d3dae1"/><path d="M92.83,627.582l71.938-25.062v2.369L92.83,629.754Z" transform="translate(-40.466 -262.649)" fill="#d3dae1"/><path d="M94.116,637.3l-1.286-5.72,71.938-24.865v4.93Z" transform="translate(-40.466 -264.48)" fill="#eaecf0"/><path d="M685.069,425.14V586.965h-3.751l-.192-150.12-.006-4.8Z" transform="translate(-296.911 -185.326)" fill="#eaecf0"/><path d="M690.878,423.74V584.972l-2.758,1.382V424.53Z" transform="translate(-299.962 -184.716)" fill="#d3dae1"/><path d="M586.13,682.522l53.735-30.032,3.8,2.206L586.13,686.07Z" transform="translate(-255.503 -284.431)" fill="#d3dae1"/><path d="M587.811,694.487l-1.681-6.713L643.661,656.4v6.51Z" transform="translate(-255.503 -286.136)" fill="#eaecf0"/><path d="M574.76,469.444l.2,170.906h5.331L579.5,467.47Z" transform="translate(-250.547 -203.778)" fill="#eaecf0"/><path d="M586.516,464.67V637.748l-2.567,1.382-.79-172.881.316-.147Z" transform="translate(-254.208 -202.558)" fill="#d3dae1"/><path d="M86.88,585.9H82.339L80.783,433.024l-.023-2.634H85.1l.034,3.007Z" transform="translate(-35.205 -187.615)" fill="#eaecf0"/><path d="M93.39,584.718,90.237,585.9,88.494,433.4l-.034-3.007h3.356l.028,3.3Z" transform="translate(-38.561 -187.615)" fill="#d3dae1"/><path d="M583.72,466.1l3.04-1.433v6.713l-2.961.987Z" transform="translate(-254.453 -202.558)" opacity="0.1"/><path d="M687.827,423.74V434l-2.758.925-3.943,1.309-.006-4.8,3.949-6.9Z" transform="translate(-296.911 -184.716)" opacity="0.1"/><path d="M645.125,388.75v28.419L583.555,437.7,583.16,407.3Z" transform="translate(-254.208 -169.463)" fill="#d48a9b"/><path d="M79.36,373.358l80.918-15.388L425.51,375.333l-61.965,18.553Z" transform="translate(-34.594 -156.046)" fill="#efc6cd"/><path d="M88.46,430.39l.028,3.3-3.351-.293-4.355-.372-.023-2.634Z" transform="translate(-35.205 -187.615)" opacity="0.1"/><path d="M224.059,443.94l-2.561-.22-3.588-.3V438.97l3.548,1.077h2.567Z" transform="translate(-94.99 -191.355)" opacity="0.1"/><path d="M79.36,385.25V411.7l284.581,24.47-.395-30.393Z" transform="translate(-34.594 -167.937)" fill="#d48a9b"/><path d="M450.648,430.577H413.48V417.09l37.168,2.617Z" transform="translate(-180.242 -181.817)" fill="#d48a9b"/><path d="M450.648,430.577H413.48V417.09l37.168,2.617Z" transform="translate(-180.242 -181.817)" opacity="0.1"/><path d="M324.96,411.85v21.311l142.685,10.853V421.321l-55.653-3.159-5.528,4.936-22.693-1.579-8.089-5.923Z" transform="translate(-141.655 -179.533)" opacity="0.1"/><path d="M323.56,410.44v21.317L466.245,442.61V419.917l-55.653-3.159-5.522,4.936-22.7-1.579-8.089-5.923Z" transform="translate(-141.045 -178.918)" fill="#fff"/><path d="M164.884,400.3l33.744,2.369-.395,10.723H176.2L161.46,407.6Z" transform="translate(-70.383 -174.498)" fill="#d48a9b"/><path d="M164.884,400.3l33.744,2.369-.395,10.723H176.2L161.46,407.6Z" transform="translate(-70.383 -174.498)" opacity="0.1"/><path d="M87.76,395.05V414.2l129.463,10.261v-20.33L167.29,401.17l-5.325,3.943-20.132-1.179-8.286-5.133Z" transform="translate(-38.256 -172.209)" opacity="0.1"/><path d="M86.36,393.65V412.8l129.463,10.261V402.732L165.89,399.77l-5.325,3.949-20.132-1.185-8.286-5.133Z" transform="translate(-37.646 -171.599)" fill="#fff"/><path d="M96.65,649.245l.886-.3-.446,6.3-.44.158Z" transform="translate(-42.131 -282.884)" opacity="0.1"/><path d="M556.89,393.78l18.147,1.19-30.071,9-15.315-1.111Z" transform="translate(-230.883 -171.656)" opacity="0.1"/><path d="M556.89,392.38l18.147,1.19-30.071,9-15.315-1.106Z" transform="translate(-230.883 -171.045)" fill="#fff"/><path d="M686.46,433.332c.716-.3,1.478.271,2.256.417.434.085.886,0,1.32.085.891.118,1.777.716,2.623.412" transform="translate(-362.625 -209.961)" fill="#d3dae1"/><path d="M684.8,434.3c.711-.31,1.478.265,2.256.412.434.085.886,0,1.326.085.891.118,1.771.716,2.617.412" transform="translate(-361.901 -210.382)" fill="#d3dae1"/><path d="M681,436.222c.716-.3,1.484.271,2.256.417.434.085.886,0,1.326.085.891.118,1.771.716,2.617.412" transform="translate(-360.245 -211.221)" fill="#d3dae1"/><circle cx="5.297" cy="5.297" r="5.297" transform="translate(22.907 410.579)" fill="#535461"/><circle cx="5.297" cy="5.297" r="5.297" transform="translate(32.384 431.298)" fill="#535461"/><circle cx="5.297" cy="5.297" r="5.297" transform="translate(126.885 435.049)" fill="#535461"/><circle cx="5.297" cy="5.297" r="5.297" transform="translate(147.999 408.013)" fill="#535461"/><rect width="6.634" height="41.443" transform="translate(86.897 322.334)" fill="#535461"/><rect width="6.634" height="6.713" transform="translate(86.897 357.065)" opacity="0.1"/><rect width="9.195" height="45.984" transform="translate(85.617 358.644)" fill="#3a3768"/><path d="M335.579,752.3l-60.2-2.465v9.685h69.862A10.672,10.672,0,0,0,335.579,752.3Z" transform="translate(-183.429 -347.966)" fill="#3a3768"/><path d="M161.193,752.3l60.2-2.465v9.685H151.53A10.667,10.667,0,0,1,161.193,752.3Z" transform="translate(-129.44 -347.966)" fill="#3a3768"/><path d="M221.779,750.822l-48.06,23.692a12.184,12.184,0,0,0-6.769,10.915v.722l56.126-24.47,7.9-.592,46.672,29.8h0a12.173,12.173,0,0,0-5.026-11.564L230.974,749.84Z" transform="translate(-136.162 -347.97)" fill="#3a3768"/><path d="M273.054,608.83V613.3q-1.743.073-3.554.073c-1.044,0-2.07,0-3.08-.056V608.83Z" transform="translate(-179.523 -286.502)" opacity="0.1"/><ellipse cx="24.476" cy="7.158" rx="24.476" ry="7.158" transform="translate(65.501 310.973)" fill="#3a3768"/><path d="M277.061,595.858a2.922,2.922,0,0,1-1.044,2.07c-3.023,2.944-12.37,5.077-23.426,5.077-10.814,0-19.98-2.053-23.223-4.891a3.1,3.1,0,0,1-1.258-2.256c0-3.949,10.96-7.158,24.481-7.158S277.061,591.9,277.061,595.858Z" transform="translate(-162.823 -277.727)" opacity="0.1"/><path d="M277.431,595.867a2.922,2.922,0,0,1-1.044,2.07c-3.114-.778-5.269-1.422-5.269-1.422s-21.576,1.207-41.381,1.619a3.1,3.1,0,0,1-1.258-2.256c0-3.949,10.96-7.158,24.481-7.158S277.431,591.913,277.431,595.867Z" transform="translate(-162.984 -277.736)" opacity="0.1"/><path d="M162.2,428.654s8.095,22.106,7.7,35.329-6.713,38.087-6.713,38.087-6.312,20.132,9.871,21.909,69.072-1.185,69.072-1.185,19.743,5.917,26.049,3.351a15.7,15.7,0,0,0,6.261-5.489,11.479,11.479,0,0,0-2.978-16.387,34.2,34.2,0,0,0-9.516-4.084,7.642,7.642,0,0,0-2.172-.265l-68.959,1.359s-7.694-1.185-6.312-8.879,3.746-31.38,3.746-31.38.395-28.813-13.42-36.9S162.2,428.654,162.2,428.654Z" transform="translate(-133.992 -204.804)" fill="#3a3768"/><path d="M162.2,428.529s8.095,22.1,7.7,35.323-6.713,38.093-6.713,38.093-6.312,20.127,9.871,21.9,69.072-1.19,69.072-1.19,19.743,5.923,26.049,3.385a15.787,15.787,0,0,0,6.261-5.489,11.485,11.485,0,0,0-2.978-16.392,34.533,34.533,0,0,0-9.516-4.084,7.441,7.441,0,0,0-2.172-.26l-68.959,1.337s-7.694-1.185-6.312-8.884,3.746-31.374,3.746-31.374.395-28.813-13.42-36.908S162.2,428.529,162.2,428.529Z" transform="translate(-133.992 -204.746)" opacity="0.1"/><path d="M165,427.254s8.095,22.106,7.7,35.329-6.713,38.087-6.713,38.087-6.312,20.132,9.866,21.909,69.072-1.185,69.072-1.185,19.743,5.917,26.055,3.385a15.759,15.759,0,0,0,6.261-5.494,11.479,11.479,0,0,0-2.978-16.387,34.194,34.194,0,0,0-9.516-4.112,7.642,7.642,0,0,0-2.172-.265l-68.959,1.359S185.918,498.7,187.3,491s3.746-31.38,3.746-31.38.395-28.813-13.42-36.9S165,427.254,165,427.254Z" transform="translate(-135.212 -204.194)" fill="#3a3768"/><path d="M413.168,753.647v7.136s34.088.615,41.6.615,17.842-3.689,18.457-6.645-8.614-5.415-12.06-5.534-3.565-1.478-8-3.819c-2.5-1.32-6.3-5.15-9.127-8.236-2.183-2.38-3.791-4.315-3.791-4.315s-18.338-.367-23.629,2.583a6.419,6.419,0,0,0-2.634,3.667C412.074,744.61,413.168,753.647,413.168,753.647Z" transform="translate(-243.356 -340.557)" fill="#434175"/><path d="M414.85,739.1c3.847-1.337,26.354-1.856,30.054-1.935-2.183-2.38-3.791-4.315-3.791-4.315s-18.338-.367-23.629,2.583A6.4,6.4,0,0,0,414.85,739.1Z" transform="translate(-244.226 -340.557)" opacity="0.1"/><path d="M239.54,538.411l1.986,1.2.745.451,2.894,1.737c15.467,9.324,57.655,34.59,59.968,34.409.6-.051,2.42-.322,4.93-.733.666-.107,1.382-.22,2.132-.35,9.663-1.608,25.722-4.513,27.516-5.314,2.459-1.128,1.969,3.813.981,8s-1.72,24.256-.615,26.828.615,6.769.615,6.769l-1.472,22.518.987,4.783s-3.322,2.708-1.969,4.3.124,8.5.124,8.5c3.949-1.478,30.641-1.969,30.641-1.969s-1.128-9.849-.124-12.184.248-16.246.248-16.246.615-10.582-.491-13.042.367-18.214.367-18.214.987-9.353,1.23-28.43-10.83-19.687-10.83-19.687-1.472-.118-3.717-.333c-4.383-.423-11.693-1.224-16.578-2.256a28.606,28.606,0,0,1-2.961-.79c-6.03-2.053-26.331-2.132-29.654-.654a8.876,8.876,0,0,1-6.634,0h0l-2.583-4.185-24.684,2.1-2.612.226-24.3,2.07-1.692.147Z" transform="translate(-167.805 -253.673)" fill="#565387"/><path d="M412.1,561.631c7.17,3.5,14.012-8.9,17.2-15.885-4.383-.423-11.693-1.224-16.578-2.256C409.509,548.854,405.222,558.286,412.1,561.631Z" transform="translate(-241.423 -258.019)" opacity="0.1"/><path d="M376.759,417.887a7.441,7.441,0,0,0,.869,2.4c2.651,5.37,10.328,16.426,10.328,16.426a17.791,17.791,0,0,1,5.641,5.641c2.093,3.571,2.708,11.936,2.708,11.936s4.676,18.581,6.887,21.17c1.128,1.292.615,2.059-.152,2.5a10.961,10.961,0,0,0-3.881,3.638c-3.227,5.184-8.377,15.479-1.128,19.01,9.843,4.8,19.077-20.358,19.077-20.358s-1.85-17.842-2.341-20.916-3.447-15.755-3.447-15.755-2.093-5.415-3.322-9.228-4.919-8.247-4.919-8.247-6.651-13.29-8.5-15.258c-.857-.914-2.059-2.065-3.1-3.035-1.2-1.128-2.194-2.008-2.194-2.008S376.635,414.943,376.759,417.887Z" transform="translate(-227.621 -198.002)" fill="#0d28fb"/><path d="M228.85,746.084l22.394,9.967s29.022.615,34.1-.739,3.949-7.012-2.708-8.123-8.241-4.056-10.458-5.41c-1.495-.914-6.8-6.82-10.091-10.56-1.585-1.8-2.708-3.1-2.708-3.1s-4.31-11.445-16.246-8.862a12.258,12.258,0,0,0-5.816,3.074c-6.436,5.957-6.995,17.74-6.995,17.74Z" transform="translate(-163.145 -334.473)" fill="#434175"/><path d="M244.38,539.654l2.894,1.737c15.467,9.324,57.655,34.59,59.968,34.409.6-.051,2.42-.322,4.93-.733.666-.107,1.382-.22,2.132-.35l.085-.141a28.2,28.2,0,0,0,2.82-6.9c2.584-9.843-10.216-17.351-10.216-17.351l-2.708-2.1c-3.074-5.178-25.226-10.075-25.226-10.075l-2.854-1.946-1.529-1.027-.4-.265-3.464-2.33-17.351,1.23-5.156,3.311-.564.35-1.884,1.235Z" transform="translate(-169.915 -253.263)" opacity="0.1"/><path d="M243.86,722.344c4.71,16.3,24.385,10.971,24.385,10.971l.372-2.065c-1.585-1.8-2.708-3.1-2.708-3.1s-4.31-11.445-16.246-8.862a12.258,12.258,0,0,0-5.8,3.057Z" transform="translate(-169.689 -334.486)" opacity="0.1"/><path d="M230.675,567.548c7.26,0,25.948,8.738,25.948,8.738,3.813,2.956,8.98,1.969,8.98,1.969s-9.087,9.228-8.834,13.047-5.173,10.091-5.173,10.091l-16.736,33.1c1.235,23.505,25.35,16.985,25.35,16.985l.987-5.539c1.478-.739,3.695-8.123,3.695-8.123s0-2.95,1.472-3.813,4.552-9.725,4.552-9.725,6.645-11.2,6.273-12.669,4.8-8.98,4.8-8.98,8.738-8.614,8.365-10.154,7.029-9.42,7.029-9.42a24.764,24.764,0,0,0,6.532-7.626,28.277,28.277,0,0,0,2.82-6.893c2.081-7.931-5.816-14.345-8.969-16.539-.762-.53-1.247-.812-1.247-.812l-2.708-2.1c-1.4-2.358-6.741-4.659-12.156-6.459-3.9-1.3-7.841-2.352-10.362-2.978-1.692-.412-2.708-.643-2.708-.643l-2.854-1.918-1-.677-.919-.615-3.469-2.33-7.717.564-9.635.683-5.15,3.317L235.38,539.6l-9.618,6.2s-.254,2.364-.333,5.545v.75C225.3,558.494,225.993,567.548,230.675,567.548Z" transform="translate(-161.648 -253.647)" fill="#565387"/><path d="M300.4,340.319l2.595,9.228s4.558,15.879,5.049,16.985,12.41,12.308,12.923,12.551,6.989,3.949,6.989,3.949.513-20.307,0-26.207a16.854,16.854,0,0,1,.321-3.87,145.181,145.181,0,0,1,4.417-16.646c1.376-4.383,2.521-7.666,2.521-7.666s-28.8-1.235-27.809,1.6a10.154,10.154,0,0,1-.107,4.654c-.6,2.956-1.833,5.912-2.6,5.686a10.12,10.12,0,0,0-2.285-.254C301.365,340.28,300.4,340.319,300.4,340.319Z" transform="translate(-194.335 -164.247)" fill="#0d28fb"/><path d="M312.65,334.873a21.3,21.3,0,0,0,25.384,1.416c1.376-4.383,2.521-7.666,2.521-7.666s-28.8-1.235-27.809,1.6A9.976,9.976,0,0,1,312.65,334.873Z" transform="translate(-199.675 -164.238)" opacity="0.1"/><path d="M299.09,293.178A21.193,21.193,0,1,0,305.3,278.1,21.294,21.294,0,0,0,299.09,293.178Z" transform="translate(-193.764 -139.624)" fill="#0d28fb"/><path d="M300.4,349.538l2.595,9.228s4.558,15.879,5.049,16.985,12.41,12.308,12.923,12.551,6.989,3.949,6.989,3.949.513-20.307,0-26.207a16.854,16.854,0,0,1,.321-3.87l-1.692,6.82.124,13.662.982.739-2.211,3.322v-2.465s-7.9-7.626-9.11-10.83-5.641-8.992-5.641-8.992-5.077-8.461-5.167-9.956c-.1-1.128-2.217-3.813-3.148-4.93C301.365,349.5,300.4,349.538,300.4,349.538Z" transform="translate(-194.335 -173.465)" opacity="0.1"/><path d="M376.759,417.9a7.441,7.441,0,0,0,.869,2.4c2.691-.271,11.846-1.986,13.876-12.455-1.2-1.128-2.194-2.008-2.194-2.008S376.635,414.956,376.759,417.9Z" transform="translate(-227.621 -198.015)" opacity="0.1"/><path d="M225.39,552.042c2.482-1.76,4.845-4.157,6.256-4.817,2.093-.987,5.291-4.185,5.291-4.185s.812-.564,2.059-1.286c2.285-1.337,6.03-3.277,8.9-3.514,2.567-.214,11.107-.761,17.819-1.179l8.76-.564s8-2.82,11.445-.987a36.306,36.306,0,0,0,7.751,2.82s0-.271,0-.733h0l-2.583-4.185-27.3,2.33-3.469-2.33-17.351,1.23-5.15,3.317-4.445.378,1.986,1.2-9.618,6.2S225.446,548.494,225.39,552.042Z" transform="translate(-161.637 -253.625)" opacity="0.1"/><path d="M217.783,472.44a11.208,11.208,0,0,0,3.6-1.839h0c2.476-1.754,4.834-4.146,6.239-4.806,2.093-.987,5.291-4.185,5.291-4.185s6.526-4.434,10.955-4.8c1.207-.1,3.734-.276,6.769-.474l10.046-.643,5.212-.327,4.552-.276s8-2.82,11.445-.987a36.308,36.308,0,0,0,7.751,2.82s.124-8.614,1.128-12.184,2.335-10.091,2.335-10.091,1.128-8.98,2.217-13.042,5.415-26.7,7.632-28.2,3.441,1.128,3.441,1.128,14.768-.248,15.016-16.488c0,0-6.893-6.893-7.384-8.614s-7.012-8.123-7.012-8.123-3.695-6.893-7.9-7.017a33.135,33.135,0,0,0-5.923.186l-3.554,14.457.124,13.662.987.739-2.217,3.322v-2.42s-7.9-7.632-9.1-10.83-5.641-9-5.641-9-5.043-8.461-5.167-9.956-3.571-5.432-3.571-5.432a8.743,8.743,0,0,0-2.093,0,2.256,2.256,0,0,1-.914-.13,12.359,12.359,0,0,0-6.149-.35c-4.253.886-10.718,2.5-12.5,4.434-2.708,2.956-6.645,5.788-11.079,18.09l23.872,8.614-2.042,3.887-19,36.1s-.632,1.027-1.484,2.364h0c-1.128,1.737-2.589,4.011-3.565,5.257-1.72,2.217-1.23,9.228-1.23,9.228s-.367,3.322-1.6,4.558-.993,5.776-.993,5.776l-3.2,11.936s-2.956,2.708-2.956,3.949-2.335,4.676-2.335,4.676S214.229,473.3,217.783,472.44Z" transform="translate(-157.634 -172.935)" fill="#dfe5ee"/><path d="M247.16,449.266h0a18.618,18.618,0,0,1,.378,2.059s9.719,22.766,10.949,24.12c.378.417,1.811,2.465,3.6,5.077l2.059,3.04c3.717,5.522,7.9,11.795,7.9,11.795l9.1,8s19.811,1.585,26.106-4.845c-.762-.53-1.247-.812-1.247-.812l-2.708-2.1c-1.4-2.358-6.741-4.659-12.156-6.459-4.986.034-9.065.44-9.065.44l-1.3-3.418-1.354-3.565-6.9-18.1s-4.439-22.885-5.917-24-1.128-4.552-1.128-4.552,2.708-9.719,1.72-11.073,1.6-11.327,1.6-11.327a10.217,10.217,0,0,0-1.185-2.758l-19,36.1S248.012,447.912,247.16,449.266Z" transform="translate(-171.127 -200.173)" opacity="0.1"/><path d="M266.326,406.276s-2.583,9.967-1.6,11.321S263,428.671,263,428.671s-.367,3.447,1.128,4.552,5.917,24,5.917,24l9.533,25.107s29.834-2.956,26.76,6.4-27.691,7.384-27.691,7.384l-9.1-8s-12.308-18.581-13.538-19.935-10.954-24.12-10.954-24.12-.491-4.552-2.584-6.893-.491-6.29-.491-6.29-2.583-29.767.124-33.332S263.506,395.57,266.326,406.276Z" transform="translate(-168.384 -193.651)" fill="#0d28fb"/><path d="M434.644,584.07s-7.756,2.589-9.832,6.278S434.644,584.07,434.644,584.07Z" transform="translate(-248.462 -275.709)" opacity="0.1"/><path d="M427.715,569.68c-.243.367-10.616,10.774-9.967,13.29S427.715,569.68,427.715,569.68Z" transform="translate(-245.476 -269.436)" opacity="0.1"/><path d="M324.7,582.77s-11.569,5.455-12.557,7.829S324.7,582.77,324.7,582.77Z" transform="translate(-199.431 -275.142)" opacity="0.1"/><path d="M323.9,595.2s-10.441,4.428-11.846,5.539S323.9,595.2,323.9,595.2Z" transform="translate(-199.368 -280.56)" opacity="0.1"/><path d="M318.746,611.466s-4.626,3.447-7.175.739S318.746,611.466,318.746,611.466Z" transform="translate(-199.019 -287.35)" opacity="0.1"/><path d="M339.8,452.74c-.248.372-15.631,28.058-19.692,30.15S339.8,452.74,339.8,452.74Z" transform="translate(-202.723 -218.46)" opacity="0.1"/><path d="M340.393,471.29c0,.615-15.016,32.717-17.487,33.1S340.393,471.29,340.393,471.29Z" transform="translate(-204.054 -226.546)" opacity="0.1"/><path d="M244.751,507.94s-7.243,15.484-10.063,16.392S244.751,507.94,244.751,507.94Z" transform="translate(-165.514 -242.522)" opacity="0.1"/><path d="M247.353,495.72s-2.5,5.415-4.016,5.415S247.353,495.72,247.353,495.72Z" transform="translate(-169.345 -237.195)" opacity="0.1"/><path d="M299.09,293.172a21.192,21.192,0,0,0,1.348,7.452,20.1,20.1,0,0,1,21-20.657c1.032.045,2.256.288,2.674,1.224a5.146,5.146,0,0,1,.254,1.557c.31,2.392,2.736,3.887,5.015,4.665s4.817,1.275,6.47,3.029c1.512,1.608,1.94,3.915,2.685,6a8.608,8.608,0,0,0,2.076,3.384,21.294,21.294,0,1,0-41.522-6.651Z" transform="translate(-193.764 -139.618)" opacity="0.1"/><path d="M335.186,259.462c-1.749-2.375-4.851-3.2-7.547-4.394a23.945,23.945,0,0,1-13.42-16.308,8.4,8.4,0,0,0,.824,10.481c-4.9-.333-10.317-.9-13.64-4.513-.756,2.606,1.506,5.568.271,7.982-1.06,2.076-3.949,2.256-5.816,3.667-1.991,1.478-2.651,4.157-2.775,6.634s.135,5.015-.6,7.384c-.564,1.8-1.692,3.452-1.805,5.331a9.138,9.138,0,0,0,.9,4.044,36.518,36.518,0,0,0,5.6,9.3,20.138,20.138,0,0,1,20.595-24.256c1.032.045,2.256.293,2.674,1.23a5.077,5.077,0,0,1,.254,1.557c.31,2.386,2.736,3.881,5.015,4.659s4.817,1.28,6.47,3.029c1.512,1.608,1.94,3.915,2.685,6s2.183,4.259,4.377,4.513a36.112,36.112,0,0,0,.7-9.341c-.338-3.356-2.595-5.257-3.385-8.179C335.7,265.21,337.329,262.373,335.186,259.462Z" transform="translate(-190.098 -125.183)" fill="#603556"/><path d="M249.959,379.879l-7.751,4.676s-2.217,7.5-3.949,8.461c0,0,15.507-8.614,27.195,11.2,0,0-.367-2.583,1.23-3.813s1.23-6.521,1.23-6.521a22.3,22.3,0,0,0,1.128-2.589C270.114,388.612,264.332,373.11,249.959,379.879Z" transform="translate(-167.247 -185.959)" opacity="0.1"/><path d="M249.475,379l-7.756,4.676s-2.217,7.508-3.949,8.5c0,0,15.507-8.619,27.194,11.2,0,0-.367-2.583,1.235-3.813s1.23-6.526,1.23-6.526a21.12,21.12,0,0,0,1.128-2.583C269.652,387.738,263.848,372.231,249.475,379Z" transform="translate(-167.034 -185.576)" fill="#dfe5ee"/><g transform="translate(100.582 116.121)" opacity="0.1"><path d="M310.21,255.545c-.028-2.008-1.224-4.219-.643-6.2l.1.107C309.81,251.5,310.949,253.661,310.21,255.545Z" transform="translate(-298.843 -245.916)"/><path d="M295.053,278.36c-.118,2.256.085,4.513-.423,6.707.186-1.72.085-3.492.175-5.229a14.487,14.487,0,0,1,.322-2.448C295.093,277.734,295.064,278.039,295.053,278.36Z" transform="translate(-292.401 -258.143)"/><path d="M290.68,303.25a6.122,6.122,0,0,1,.243-1.32,9.4,9.4,0,0,0,.908,3.887,36.428,36.428,0,0,0,5.02,8.574,19.521,19.521,0,0,0,.327,2.2,36.519,36.519,0,0,1-5.6-9.3A9.138,9.138,0,0,1,290.68,303.25Z" transform="translate(-290.679 -268.841)"/><path d="M332.357,249.729c-.474-.028-.959-.062-1.438-.1a8.67,8.67,0,0,1-.818-6.357,8.314,8.314,0,0,0,2.256,6.459Z" transform="translate(-307.746 -243.27)"/><path d="M306.8,289.364a20.465,20.465,0,0,1,16.24-7.085c1.032.051,2.256.293,2.679,1.23a5.29,5.29,0,0,1,.254,1.557c.31,2.386,2.73,3.887,5.015,4.659s4.812,1.28,6.464,3.035c1.517,1.608,1.946,3.915,2.691,5.991s2.177,4.253,4.366,4.513l-.237,1.478c-2.194-.237-3.633-2.414-4.377-4.513s-1.173-4.389-2.685-6c-1.653-1.749-4.191-2.256-6.47-3.029s-4.7-2.256-5.015-4.659a5.076,5.076,0,0,0-.254-1.557c-.44-.936-1.641-1.185-2.674-1.23a20.036,20.036,0,0,0-20.589,16.127A20.375,20.375,0,0,1,306.8,289.364Z" transform="translate(-295.706 -260.269)"/></g><path d="M415.479,339.65v22.073L394.36,360.03V339.65Z" transform="translate(-171.908 -148.06)" fill="#3a3768"/><path d="M415.479,374.272v1.805l-21.119-1.692V372.58Z" transform="translate(-171.908 -162.414)" opacity="0.1"/><path d="M530.222,415.208l-32.852-1.692h0a3.215,3.215,0,0,1,3.215-3.215l26.422,1.692A3.215,3.215,0,0,1,530.222,415.208Z" transform="translate(-280.197 -199.959)" fill="#3a3768"/><path d="M536.253,327.981,422.618,324.6a3.452,3.452,0,0,1-3.458-3.458V254.012a3.452,3.452,0,0,1,3.458-3.452l113.635,3.384a3.458,3.458,0,0,1,3.458,3.452v67.126A3.458,3.458,0,0,1,536.253,327.981Z" transform="translate(-246.104 -130.326)" fill="#3a3768"/><path d="M426.51,292.346l-115.22-3.384V228.48l115.22,3.385Z" transform="translate(-135.696 -99.599)" fill="#36ca8e"/><ellipse cx="1.015" cy="1.004" rx="1.015" ry="1.004" transform="translate(232.188 124.752)" fill="#fff"/><path d="M415.492,346.8l-21.052-.338v.716h21.052Z" transform="translate(-171.942 -151.028)" opacity="0.1"/><path d="M356.838,383.88l28.83,1.89-6.143,8.828-31.7-3.384Z" transform="translate(-151.624 -167.34)" opacity="0.1"/><path d="M355.838,382.88l28.83,1.89-6.143,8.828-31.7-3.384Z" transform="translate(-151.189 -166.904)" fill="#3a3768"/><path d="M358.988,384.04l25.141,1.534-5.353,7.192-27.646-2.758Z" transform="translate(-153.063 -167.41)" fill="#d5e1f4"/><ellipse cx="36.214" cy="5.556" rx="36.214" ry="5.556" transform="translate(462.115 442.529)" fill="#36ca8e" opacity="0.55"/><path d="M1023.325,599.29s4.022,5.263-1.862,13.211-10.718,14.666-8.772,19.608c0,0,8.879-14.762,16.1-14.965S1031.29,608.152,1023.325,599.29Z" transform="translate(-504.643 -282.343)" fill="#36ca8e"/><path d="M1023.5,599.29a6.6,6.6,0,0,1,.818,1.647c7.051,8.286,10.808,16.014,4.033,16.206-6.312.18-13.882,11.462-15.7,14.316a6.722,6.722,0,0,0,.214.649s8.879-14.762,16.1-14.965S1031.462,608.152,1023.5,599.29Z" transform="translate(-504.816 -282.343)" opacity="0.1"/><path d="M1044.421,610.256c0,1.85-.209,3.385-.463,3.385s-.468-1.506-.468-3.385.259-.982.519-.982S1044.421,608.406,1044.421,610.256Z" transform="translate(-518.26 -286.602)" fill="#ffd037"/><path d="M1047.238,614.119c-1.625.886-3.046,1.422-3.165,1.2s1.094-1.128,2.719-2.014.987-.237,1.128,0S1048.869,613.233,1047.238,614.119Z" transform="translate(-518.511 -288.254)" fill="#ffd037"/><path d="M987.208,599.29s-4.028,5.263,1.856,13.211,10.718,14.666,8.771,19.608c0,0-8.873-14.762-16.1-14.965S979.26,608.152,987.208,599.29Z" transform="translate(-489.787 -282.343)" fill="#36ca8e"/><path d="M987.208,599.29a6.479,6.479,0,0,0-.824,1.647c-7.045,8.286-10.8,16.014-4.028,16.206,6.312.18,13.882,11.462,15.693,14.316a5.459,5.459,0,0,1-.214.649s-8.873-14.762-16.1-14.965S979.26,608.152,987.208,599.29Z" transform="translate(-489.787 -282.343)" opacity="0.1"/><path d="M980.93,610.256c0,1.85.2,3.385.463,3.385s.463-1.506.463-3.385-.26-.982-.513-.982S980.93,608.406,980.93,610.256Z" transform="translate(-490.989 -286.602)" fill="#ffd037"/><path d="M975.592,614.119c1.63.886,3.046,1.422,3.17,1.2s-1.128-1.128-2.724-2.014-.982-.237-1.128,0S973.968,613.233,975.592,614.119Z" transform="translate(-488.223 -288.254)" fill="#ffd037"/><ellipse cx="42.081" cy="6.459" rx="42.081" ry="6.459" transform="translate(465.968 377.112)" fill="#36ca8e" opacity="0.1"/><path d="M1017.949,642.989l-.2,1.647-.282,2.318-.118.97-.282,2.318-.118.97-.282,2.318-3.221,26.4c-.288,2.358-4.14,4.191-8.788,4.191H987.923c-4.648,0-8.49-1.833-8.777-4.191l-3.227-26.4-.282-2.318-.118-.97-.288-2.318-.119-.97-.282-2.318-.2-1.647c-.164-1.331,1.918-2.459,4.547-2.459H1013.4C1016.014,640.53,1018.113,641.658,1017.949,642.989Z" transform="translate(-488.24 -300.32)" fill="#65617d"/><path d="M905.54,610.4l-.282,2.318H862.912l-.282-2.318Z" transform="translate(-376.034 -266.084)" fill="#9d9cb5"/><path d="M905.445,616.23l-.282,2.324H863.618l-.288-2.324Z" transform="translate(-376.339 -268.625)" fill="#9d9cb5"/><path d="M905.358,622.06l-.282,2.324H864.332l-.282-2.324Z" transform="translate(-376.653 -271.166)" fill="#9d9cb5"/></g></svg>