<svg xmlns="http://www.w3.org/2000/svg" xmlns:xlink="http://www.w3.org/1999/xlink" width="320.78" height="218.599" viewBox="0 0 320.78 218.599"><defs><linearGradient id="a" x1="0.5" y1="1" x2="0.5" gradientUnits="objectBoundingBox"><stop offset="0" stop-color="gray" stop-opacity="0.251"/><stop offset="0.535" stop-color="gray" stop-opacity="0.122"/><stop offset="1" stop-color="gray" stop-opacity="0.102"/></linearGradient></defs><g transform="translate(0 0)"><path d="M233.544,621.243c-2.306,8.783-10.388,14.272-10.388,14.272s-4.342-8.751-2.036-17.534,10.388-14.272,10.388-14.272S235.85,612.46,233.544,621.243Z" transform="translate(-185.388 -443.653)" fill="#3f3d56"/><path d="M234.951,637.011c-6.46,6.382-7.182,16.125-7.182,16.125s9.751-.6,16.21-6.987,7.182-16.125,7.182-16.125S241.411,630.629,234.951,637.011Z" transform="translate(-190.294 -461.279)" fill="#36ca8e"/><rect width="35.305" height="15.023" rx="7.512" transform="translate(22.472 189.29)" fill="#36ca8e"/><g transform="translate(268.635 174.28)" opacity="0.7"><path d="M954.871,652.2v-5.413H927.805v25.037a5.278,5.278,0,0,0,5.278,5.278h16.511a5.278,5.278,0,0,0,5.278-5.278v-5.549a7.037,7.037,0,1,0,0-14.075Zm0,11.368V654.9a4.331,4.331,0,1,1,0,8.661Z" transform="translate(-927.805 -646.785)" fill="url(#a)"/></g><path d="M994.107,665.744a6.425,6.425,0,1,0,6.425,6.425A6.425,6.425,0,0,0,994.107,665.744Zm0,10.38a3.954,3.954,0,1,1,3.954-3.954,3.954,3.954,0,0,1-3.954,3.954Z" transform="translate(-699.275 -485.203)" fill="#0d28fb"/><path d="M994.107,665.744a6.425,6.425,0,1,0,6.425,6.425A6.425,6.425,0,0,0,994.107,665.744Zm0,10.38a3.954,3.954,0,1,1,3.954-3.954,3.954,3.954,0,0,1-3.954,3.954Z" transform="translate(-699.275 -485.203)" fill="#36ca8e" opacity="0.1"/><path d="M818.016,531.776h24.713v24.459a3.22,3.22,0,0,1-3.219,3.219H821.235a3.22,3.22,0,0,1-3.219-3.219Z" transform="translate(-547.898 -356.178)" fill="#36ca8e"/><rect width="320.78" height="10.874" transform="translate(0 203.277)" fill="#e0e0e0"/><g transform="translate(102.497 0)" opacity="0.7"><path d="M533.175,249.521c-3.438-12.479-22.929-21.592-37.595-23.613,0-.092.007-.183.007-.276V214.95l.047-.016v-.4a36.633,36.633,0,0,0,22.128-23.191,39.59,39.59,0,0,0,2.361-5.09c1.566-.57,2.748-3.152,2.748-6.254a10.919,10.919,0,0,0-.442-3.135,40.128,40.128,0,0,0,.294-4.761,39.685,39.685,0,0,0-13.108-29.515,7.741,7.741,0,0,0,.124-1.941c-.332-5.127-5.808-8.611-10.941-8.844a10.831,10.831,0,0,0,1.827-11.437c-3.273,4.768-9.992,5.275-15.775,5.312A4.731,4.731,0,0,0,487.017,119c-6.044,8.1-17.826,9.6-25.015,16.707a21.09,21.09,0,0,0-3.89,5.305A39.7,39.7,0,0,0,443.147,172.1a40.139,40.139,0,0,0,.288,4.718,10.884,10.884,0,0,0-.456,3.178c0,3.116,1.194,5.706,2.77,6.26a39.591,39.591,0,0,0,2.372,5.107,36.626,36.626,0,0,0,21.973,23.11v11.162c0,.086,0,.171.006.256-14.721,1.986-34.368,11.17-37.775,23.75-2.943,10.863-6.084,22.794-7.647,29.8,13.4,9.413,41.505,14.94,59.121,14.94,16.737,0,44.094-4.989,57.1-13.56C539.486,273.121,536.246,260.666,533.175,249.521Z" transform="translate(-424.678 -119)" fill="url(#a)"/></g><path d="M487.928,505.923c16.146,0,42.536-4.812,55.078-13.08-1.359-7.425-4.484-19.439-7.446-30.191-3.772-13.693-27.582-23.186-41.785-23.186H480.088c-14.247,0-38.091,9.548-41.816,23.3-2.839,10.48-5.869,21.988-7.376,28.745C443.819,500.591,470.935,505.923,487.928,505.923Z" transform="translate(-326.346 -333.644)" fill="#36ca8e"/><circle cx="38.382" cy="38.382" r="38.382" transform="translate(122.366 15.936)" fill="#72351c"/><path d="M449.291,261.311h24.594v19.675a12.3,12.3,0,0,1-12.3,12.3h0a12.3,12.3,0,0,1-12.3-12.3V261.311Z" transform="translate(-300.93 -175.023)" opacity="0.1"/><path d="M452.819,258.553h17.539a3.528,3.528,0,0,1,3.528,3.528v16.147a12.3,12.3,0,0,1-12.3,12.3h0a12.3,12.3,0,0,1-12.3-12.3V262.081A3.528,3.528,0,0,1,452.819,258.553Z" transform="translate(-300.931 -173.176)" fill="#0d28fb"/><path d="M563.709,402.444a35.4,35.4,0,0,0,24.594.068v-3.021H563.709Z" transform="translate(-415.303 -306.87)" opacity="0.1"/><circle cx="35.251" cy="35.251" r="35.251" transform="translate(125.498 26.719)" fill="#0d28fb"/><path d="M525.046,191.575S539.9,221.73,581.81,204.213l-9.756-15.3-17.3-6.209Z" transform="translate(-389.407 -161.669)" opacity="0.1"/><path d="M525.046,190.231S539.9,220.387,581.81,202.87l-9.756-15.3-17.3-6.209Z" transform="translate(-389.407 -160.769)" fill="#72351c"/><path d="M523.155,152.71a20.364,20.364,0,0,1,5.047-8.21c6.935-6.854,18.3-8.3,24.131-16.116a4.564,4.564,0,0,1-2.09,6.436c5.579-.036,12.06-.525,15.217-5.125a10.448,10.448,0,0,1-1.762,11.033c4.951.225,10.234,3.585,10.554,8.531.213,3.3-1.853,6.415-4.561,8.3s-5.984,2.757-9.208,3.468C551.071,163.107,517.012,171.806,523.155,152.71Z" transform="translate(-387.647 -125.285)" fill="#72351c"/><path d="M564.864,307.6h-.935l-18.182,16.187c-17.517-8.2-30.377,0-30.377,0L496.3,308.267l-1.923.242a35.248,35.248,0,1,0,70.49-.907Zm-35.3,22.4c-6.858,0-12.417-1.39-12.417-3.1s5.559-3.1,12.417-3.1,12.417,1.39,12.417,3.1S536.419,330,529.561,330Z" transform="translate(-368.866 -245.324)" fill="#72351c"/><ellipse cx="3.279" cy="6.148" rx="3.279" ry="6.148" transform="translate(122.204 55.788)" fill="#0d28fb"/><ellipse cx="3.279" cy="6.148" rx="3.279" ry="6.148" transform="translate(192.716 55.788)" fill="#0d28fb"/><g transform="translate(92.181 124.722)" opacity="0.7"><rect width="136.418" height="78.555" rx="14.5" fill="url(#a)"/></g><rect width="131.475" height="77.106" rx="26.835" transform="translate(94.652 126.171)" fill="#535461"/><circle cx="4.448" cy="4.448" r="4.448" transform="translate(155.941 160.276)" fill="#fff"/><rect width="293.595" height="4.448" transform="translate(13.592 214.151)" fill="#e0e0e0"/><rect width="293.595" height="1.483" transform="translate(13.592 214.151)" opacity="0.1"/><path d="M983.89,650.776v22.86a4.819,4.819,0,0,1-4.819,4.819h2.471a4.819,4.819,0,0,0,4.819-4.819v-22.86Z" transform="translate(-693.508 -475.178)" opacity="0.1"/><path d="M944.662,593.7a1.443,1.443,0,0,0-1.091.554c-.324.588.263,1.25.8,1.654a10.634,10.634,0,0,1,2.707,2.52,3.159,3.159,0,0,1,.149,3.492c-.961,1.3-3.253,1.583-3.475,3.187-.142,1.03.748,1.908,1.65,2.425,2.226,1.275,5.1,1.615,6.708,3.611a5.2,5.2,0,0,1,3.646-2.5c1.487-.339,3.032-.313,4.54-.543a1.57,1.57,0,0,0,1.253-.664c.422-.855-.78-1.881-.365-2.74.316-.654,1.243-.6,1.919-.865a2.5,2.5,0,0,0,1.244-2.984,5.619,5.619,0,0,0-2.126-2.76,23.811,23.811,0,0,0-8.561-3.958,21.952,21.952,0,0,0-4.551-1.053A22.761,22.761,0,0,0,944.662,593.7Z" transform="translate(-669.668 -436.522)" fill="#eee"/><rect width="75" height="31" transform="translate(235 73)" fill="#36ca8e"/><line x2="32" transform="translate(248.5 81.5)" fill="none" stroke="#fff" stroke-width="2"/><line x2="44" transform="translate(248.5 88.5)" fill="none" stroke="#fff" stroke-width="2"/><line x2="16" transform="translate(248.5 95.5)" fill="none" stroke="#fff" stroke-width="2"/><g transform="translate(27.565 92.5)"><rect width="54" height="22" transform="translate(0.435 0.5)" fill="#0d28fb"/><line x1="23.226" transform="translate(21.411 16.331)" fill="none" stroke="#fff" stroke-width="1"/><line x1="31.935" transform="translate(12.702 11.25)" fill="none" stroke="#fff" stroke-width="1"/><line x1="11.613" transform="translate(33.024 6.169)" fill="none" stroke="#fff" stroke-width="1"/></g></g></svg>